<svg width="auto" height="auto" viewBox="0 0 83 81" fill="none" xmlns="http://www.w3.org/2000/svg">
<path d="M41.4141 0.00258835C18.5354 0.00258835 0 18.5535 0 41.4167C0 59.7243 11.8651 75.2417 28.3091 80.7161C30.3876 81.1069 31.1382 79.8257 31.1382 78.7179C31.1382 77.7343 31.1149 75.133 31.0994 71.6801C19.5733 74.1753 17.1454 66.1124 17.1454 66.1124C15.2585 61.3395 12.5355 60.0582 12.5355 60.0582C8.78756 57.4983 12.8332 57.5527 12.8332 57.5527C16.985 57.8348 19.1696 61.8106 19.1696 61.8106C22.8632 68.1469 28.8605 66.3143 31.234 65.2479C31.5964 62.5793 32.6757 60.7441 33.8509 59.7217C24.6569 58.6838 14.9893 55.1248 14.9893 39.2554C14.9893 34.7231 16.5941 31.0321 19.2472 28.1331C18.7891 27.0952 17.3862 22.8761 19.6122 17.1713C19.6122 17.1713 23.078 16.0661 31.001 21.4189C34.3168 20.5 37.837 20.0418 41.3546 20.0185C44.8748 20.0418 48.3924 20.5026 51.7081 21.4189C59.5845 16.0661 63.0478 17.1713 63.0478 17.1713C65.2712 22.8761 63.8683 27.0926 63.4645 28.1331C66.0917 31.0321 67.6965 34.7257 67.6965 39.2554C67.6965 55.161 58.016 58.6683 48.8117 59.6803C50.2508 60.9202 51.5994 63.4697 51.5994 67.3393C51.5994 72.8785 51.5476 77.3408 51.5476 78.6894C51.5476 79.7662 52.2724 81.0604 54.4052 80.6436C70.9708 75.2261 82.823 59.6958 82.823 41.4141C82.823 18.5509 64.2876 0 41.4089 0L41.4141 0.00258835Z" fill="white"/>
</svg>
