<svg width="129" height="129" viewBox="0 0 129 129" fill="none" xmlns="http://www.w3.org/2000/svg">
<path d="M109.634 109.678H90.5986V79.8081C90.5986 72.6856 90.4497 63.532 80.6447 63.532C70.7189 63.532 69.2067 71.2578 69.2067 79.2813V109.674H50.1475V48.2573H68.4547V56.6347H68.7C71.2578 51.7965 77.4795 46.7089 86.7618 46.7089C106.07 46.7089 109.654 59.4218 109.654 75.9513V109.674L109.634 109.678ZM28.6149 39.8638C22.4737 39.8638 17.551 34.897 17.551 28.7798C17.551 22.6828 22.4938 17.724 28.6149 17.724C34.7361 17.724 39.6949 22.6828 39.6949 28.7798C39.6949 34.897 34.7361 39.8638 28.6149 39.8638ZM38.1626 109.678H19.0632V48.2613H38.1626V109.678ZM119.189 0H9.49139C4.25102 0 0 4.14645 0 9.27824V119.423C0 124.554 4.25102 128.701 9.49139 128.701H119.169C124.402 128.701 128.697 124.554 128.697 119.423V9.27824C128.697 4.14645 124.402 0 119.169 0L119.189 0Z" fill="white"/>
</svg>
